<?xml version="1.0" standalone="no"?>
<!DOCTYPE svg PUBLIC "-//W3C//DTD SVG 20010904//EN"
 "http://www.w3.org/TR/2001/REC-SVG-20010904/DTD/svg10.dtd">
<svg version="1.0" xmlns="http://www.w3.org/2000/svg"
 width="43.000000pt" height="43.000000pt" viewBox="0 0 43.000000 43.000000"
 preserveAspectRatio="xMidYMid meet">
<metadata>
Created by potrace 1.16, written by Peter Selinger 2001-2019
</metadata>
<g transform="translate(0.000000,43.000000) scale(0.100000,-0.100000)"
fill="#000000" stroke="none">
<path d="M85 381 c-50 -21 -70 -73 -53 -141 9 -36 26 -60 89 -123 43 -42 84
-77 91 -77 18 0 111 78 147 124 36 45 55 106 46 146 -14 65 -97 99 -157 62
-32 -19 -34 -19 -63 -1 -32 20 -67 23 -100 10z m101 -46 c31 -31 33 -31 63 0
60 64 157 -5 125 -89 -11 -28 -43 -18 -61 19 -9 20 -21 34 -27 32 -5 -2 -16
-22 -24 -45 l-14 -42 -18 22 -17 22 -14 -22 c-13 -21 -14 -20 -29 20 -19 53
-32 57 -53 13 -18 -37 -50 -47 -61 -19 -33 86 66 153 130 89z m-31 -125 c9
-39 25 -48 44 -23 15 20 16 20 32 0 19 -25 35 -16 44 23 8 34 21 39 30 11 3
-11 15 -21 27 -23 19 -3 16 -8 -22 -46 -24 -24 -56 -52 -71 -63 l-28 -20 -68
65 c-56 53 -64 65 -46 66 13 0 24 8 28 20 9 29 22 25 30 -10z"/>
</g>
</svg>
